<svg width="41" height="37" xmlns="http://www.w3.org/2000/svg">
 <g>
  <title>Layer 1</title>
  <!-- black queen //-->
  <g stroke="#000000" stroke-miterlimit="4" stroke-linejoin="round" stroke-linecap="round" stroke-width="1.5" fill-rule="evenodd" fill="0">
   <g stroke="null" fill="#000000">
    <circle stroke="null" r="2.75" cy="7.5" cx="3.5"/>
    <circle stroke="null" r="2.75" cy="4.5" cx="11.5"/>
    <circle stroke="null" r="2.75" cy="3.5" cx="20"/>
    <circle stroke="null" r="2.75" cy="4.5" cx="28.5"/>
    <circle stroke="null" r="2.75" cy="7.5" cx="36.5"/>
   </g>
   <path stroke="#000000" d="m6.5,21.5c8.5,-1.5 21,-1.5 27,0l2.5,-12.5l-7.5,11.5l-0.3,-14.1l-5.2,13.6l-3,-14.5l-3,14.5l-5.2,-13.6l-0.3,14.1l-7.5,-11.5l2.5,12.5z"/>
   <path stroke="null" d="m6.5,21.5c0,2 1.5,2 2.5,4c1,1.5 1,1 0.5,3.5c-1.5,1 -1.5,2.5 -1.5,2.5c-1.5,1.5 0.5,2.5 0.5,2.5c6.5,1 16.5,1 23,0c0,0 1.5,-1 0,-2.5c0,0 0.5,-1.5 -1,-2.5c-0.5,-2.5 -0.5,-2 0.5,-3.5c1,-2 2.5,-2 2.5,-4c-8.5,-1.5 -18.5,-1.5 -27,0z"/>
   <path stroke="#000000" fill="none" d="m8.5,34a35,35 1 0 0 23,0"/>
   <path stroke="#ffffff" fill="none" d="m8.5,24.5a35,35 1 0 1 23,0"/>
   <path stroke="#ffffff" fill="none" d="m10,27l20,0"/>
   <path stroke="#ffffff" fill="none" d="m9,30a35,35 1 0 0 22,0"/>
   <path stroke="#ffffff" fill="none" d="m8,33a35,35 1 0 0 24,0"/>
  </g>
 </g>

</svg>