<svg width="24" height="32" xmlns="http://www.w3.org/2000/svg">
 <g>
  <title>Layer 1</title>
  <!-- black pawn //-->
  <g stroke="null">
   <path transform="translate(0.5, 1)"  stroke="#000000" stroke-miterlimit="4" stroke-linecap="round" stroke-width="1.5" fill="#000000" d="m11.5,0c-2.21,0 -4,1.79 -4,4c0,0.89 0.29,1.71 0.78,2.38c-1.95,1.12 -3.28,3.21 -3.28,5.62c0,2.03 0.94,3.84 2.41,5.03c-3,1.06 -7.41,5.55 -7.41,13.47l23,0c0,-7.92 -4.41,-12.41 -7.41,-13.47c1.47,-1.19 2.41,-3 2.41,-5.03c0,-2.41 -1.33,-4.5 -3.28,-5.62c0.49,-0.67 0.78,-1.49 0.78,-2.38c0,-2.21 -1.79,-4 -4,-4z"/>
  </g>
 </g>

</svg>