<svg width="67" height="68" xmlns="http://www.w3.org/2000/svg">

 <g>
  <title>Layer 1</title>
  <!-- black bishop //-->
  <g stroke="#000000" stroke-miterlimit="4" stroke-linejoin="round" stroke-linecap="round" stroke-width="1.5" fill-rule="evenodd" fill="none">
   <g stroke="#000000" fill="#000000">
    <path stroke="null" d="m6.68263,61.0652c6.70389,-1.91822 19.99301,0.85035 26.69689,-3.9551c6.70389,4.80544 19.99301,2.03687 26.69689,3.9551c0,0 3.26295,1.06788 5.93264,3.9551c-1.34473,1.91822 -3.26295,1.95777 -5.93264,0.98877c-6.70389,-1.91822 -19.99301,0.90967 -26.69689,-1.97755c-6.70389,2.88722 -19.99301,0.05933 -26.69689,1.97755c-2.6776,0.969 -4.59384,0.92945 -5.93264,-0.98877c2.6776,-3.83644 5.93264,-3.9551 5.93264,-3.9551z"/>
    <path stroke="null" d="m18.54792,53.15501c4.94387,4.94387 24.71934,4.94387 29.66321,0c0.98877,-2.96632 0,-3.9551 0,-3.9551c0,-4.94387 -4.94387,-7.91019 -4.94387,-7.91019c10.87651,-2.96632 11.86529,-22.7418 -9.88774,-30.65199c-21.75302,7.91019 -20.76425,27.68567 -9.88774,30.65199c0,0 -4.94387,2.96632 -4.94387,7.91019c0,0 -0.98877,0.98877 0,3.9551z"/>
    <path stroke="null" d="m38.32339,5.69387a4.94387,4.94387 0 1 1 -9.88774,0a4.94387,4.94387 0 1 1 9.88774,0z"/>
   </g>
   <path stroke="#ffffff" fill="none" d="m23.49179,41.28972l19.77548,0m-24.71934,7.91019l29.66321,0m-14.83161,-28.67444l0,9.88774m-4.94387,-4.94387l9.88774,0"/>
  </g>
 </g>
</svg>