<svg width="68" height="69" xmlns="http://www.w3.org/2000/svg">

 <g>
  <title>Layer 1</title>
  <!-- black king //-->
  <g stroke="#000000" stroke-miterlimit="4" stroke-linejoin="round" stroke-linecap="round" stroke-width="1.5" fill-rule="evenodd" fill="none">
   <path stroke="#000000" fill="none" d="m33.7219,11.8836l0,-11.13359"/>
   <path stroke="null" fill="#000000" d="m33.7219,38.32341c0,0 8.89896,-14.83161 5.93264,-20.76425c0,0 -1.97755,-4.94387 -5.93264,-4.94387c-3.9551,0 -5.93264,4.94387 -5.93264,4.94387c-2.96632,5.93264 5.93264,20.76425 5.93264,20.76425"/>
   <path stroke="#000000" fill="#000000" d="m11.96888,62.05398c10.87651,6.92142 30.65199,6.92142 41.5285,0l0,-13.84283c0,0 17.79793,-8.89896 11.86529,-20.76425c-7.91019,-12.85406 -26.69689,-6.92142 -31.64076,7.91019l0,6.92142l0,-6.92142c-6.92142,-14.83161 -25.70812,-20.76425 -31.64076,-7.91019c-5.93264,11.86529 9.88774,19.77548 9.88774,19.77548l0,14.83161z"/>
   <path stroke="#000000" fill="none" d="m28.77803,4.7051l9.88774,0"/>
   <path stroke="#ffffff" fill="none" d="m52.5086,47.22237c0,0 16.80915,-7.91019 11.92461,-19.08333c-7.67288,-11.56865 -25.76744,-3.65846 -30.71131,9.1956l0.01978,4.15285l-0.01978,-4.15285c-4.94387,-12.85406 -24.90523,-20.76425 -30.65792,-9.1956c-4.93794,11.17314 9.59704,17.79793 9.59704,17.79793"/>
   <path stroke="#ffffff" fill="none" d="m11.96888,48.21114c10.87651,-5.93264 30.65199,-5.93264 41.5285,0m-41.5285,6.92142c10.87651,-5.93264 30.65199,-5.93264 41.5285,0m-41.5285,6.92142c10.87651,-5.93264 30.65199,-5.93264 41.5285,0"/>
  </g>
 </g>
</svg>