<svg width="39" height="36" xmlns="http://www.w3.org/2000/svg">
 <g>
  <title>Layer 1</title>
  <!-- white queen //-->
  <g stroke="#000000" stroke-miterlimit="4" stroke-linejoin="round" stroke-linecap="round" stroke-width="1.5" fill-rule="evenodd" fill="#ffffff">
   <path stroke="null" transform="translate(-1 -1)" d="m5.75,8.25a2,2 0 1 1 -4,0a2,2 0 1 1 4,0z"/>
   <path stroke="null" transform="translate(15.5 -5.5)" d="m5.75,8.25a2,2 0 1 1 -4,0a2,2 0 1 1 4,0z"/>
   <path stroke="null" transform="translate(32 -1)" d="m5.75,8.25a2,2 0 1 1 -4,0a2,2 0 1 1 4,0z"/>
   <path stroke="null" transform="translate(7 -4.5)" d="m5.75,8.25a2,2 0 1 1 -4,0a2,2 0 1 1 4,0z"/>
   <path stroke="null" transform="translate(24 -4)" d="m5.75,8.25a2,2 0 1 1 -4,0a2,2 0 1 1 4,0z"/>
   <path stroke="null" d="m5.75,21.25c8.5,-1.5 21,-1.5 27,0l2,-12l-7,11l0,-14l-5.5,13.5l-3,-15l-3,15l-5.5,-14l0,14.5l-7,-11l2,12z"/>
   <path stroke="null" d="m5.75,21.25c0,2 1.5,2 2.5,4c1,1.5 1,1 0.5,3.5c-1.5,1 -1.5,2.5 -1.5,2.5c-1.5,1.5 0.5,2.5 0.5,2.5c6.5,1 16.5,1 23,0c0,0 1.5,-1 0,-2.5c0,0 0.5,-1.5 -1,-2.5c-0.5,-2.5 -0.5,-2 0.5,-3.5c1,-2 2.5,-2 2.5,-4c-8.5,-1.5 -18.5,-1.5 -27,0z"/>
   <path stroke="null" fill="none" d="m8.25,25.25c3.5,-1 18.5,-1 22,0"/>
   <path stroke="null" fill="none" d="m8.75,28.75c6,-1 15,-1 21,0"/>
  </g>
 </g>

</svg>