<svg width="66" height="66" xmlns="http://www.w3.org/2000/svg">

 <g>
  <title>Layer 1</title>
  <!-- white knight //-->
  <g stroke="#000000" stroke-miterlimit="4" stroke-linejoin="round" stroke-linecap="round" stroke-width="1.5" fill-rule="evenodd" fill="none">
   <path stroke="#000000" fill="#ffffff" d="m32.39076,6.68264c20.76425,1.97755 32.62953,15.82038 31.64076,57.34888l-45.48359,0c0,-17.79793 19.77548,-12.85406 15.82038,-41.5285"/>
   <path stroke="#000000" fill="#ffffff" d="m36.34585,22.50302c0.75147,5.75466 -10.97539,14.57453 -15.82038,17.79793c-5.93264,3.9551 -5.57668,8.58256 -9.88774,7.91019c-2.0606,-1.85889 2.78834,-6.01174 0,-5.93264c-1.97755,0 0.37573,2.43238 -1.97755,3.9551c-1.97755,0 -7.91612,1.97755 -7.91019,-7.91019c0,-3.9551 11.86529,-23.73057 11.86529,-23.73057c0,0 3.73756,-3.75734 3.9551,-6.92142c-1.44361,-1.96568 -0.98877,-3.9551 -0.98877,-5.93264c1.97755,-1.97755 5.93264,4.94387 5.93264,4.94387l3.9551,0c0,0 1.54249,-3.93927 4.94387,-5.93264c1.97755,0 1.97755,5.93264 1.97755,5.93264"/>
   <path stroke="#000000" fill="#000000" d="m7.67141,37.33463a0.98877,0.98877 0 1 1 -1.97755,0a0.98877,0.98877 0 1 1 1.97755,0z"/>
   <path stroke="#000000" fill="#000000" d="m18.41543,18.05354a0.85628,2.56883 0 1 1 -1.71256,-0.98877a0.85628,2.56883 0 1 1 1.71256,0.98877z"/>
  </g>
 </g>
</svg>